<svg xmlns="http://www.w3.org/2000/svg" viewBox="0 0 64 64">
  <defs>
    <radialGradient id="ang-glow" cx="50%" cy="30%" r="60%">
      <stop offset="0%" stop-color="#fef9c3" stop-opacity="0.6"/>
      <stop offset="100%" stop-color="#0c4a6e" stop-opacity="0"/>
    </radialGradient>
  </defs>
  <circle cx="32" cy="32" r="32" fill="#082f49"/>
  <!-- Soft aura -->
  <circle cx="32" cy="28" r="22" fill="url(#ang-glow)"/>
  <!-- Wings -->
  <ellipse cx="12" cy="38" rx="12" ry="8" fill="#e0f2fe" opacity="0.9" transform="rotate(-20,12,38)"/>
  <ellipse cx="10" cy="44" rx="9" ry="6" fill="#bae6fd" opacity="0.7" transform="rotate(-15,10,44)"/>
  <ellipse cx="52" cy="38" rx="12" ry="8" fill="#e0f2fe" opacity="0.9" transform="rotate(20,52,38)"/>
  <ellipse cx="54" cy="44" rx="9" ry="6" fill="#bae6fd" opacity="0.7" transform="rotate(15,54,44)"/>
  <!-- Wing feather lines -->
  <path d="M 12 32 Q 8 38 6 44" fill="none" stroke="#7dd3fc" stroke-width="1" opacity="0.5"/>
  <path d="M 52 32 Q 56 38 58 44" fill="none" stroke="#7dd3fc" stroke-width="1" opacity="0.5"/>
  <!-- Halo -->
  <ellipse cx="32" cy="14" rx="14" ry="4" fill="none" stroke="#eab308" stroke-width="3.5"/>
  <ellipse cx="32" cy="14" rx="14" ry="4" fill="none" stroke="#fef08a" stroke-width="1.5" opacity="0.8"/>
  <!-- Face -->
  <circle cx="32" cy="35" r="17" fill="#fff7ed"/>
  <!-- Serene eyes -->
  <path d="M 22 31 Q 26 28 30 31" fill="none" stroke="#1e293b" stroke-width="2" stroke-linecap="round"/>
  <path d="M 34 31 Q 38 28 42 31" fill="none" stroke="#1e293b" stroke-width="2" stroke-linecap="round"/>
  <circle cx="26" cy="32" r="1.5" fill="#1e293b"/>
  <circle cx="38" cy="32" r="1.5" fill="#1e293b"/>
  <!-- Gentle smile -->
  <path d="M 25 40 Q 32 46 39 40" fill="none" stroke="#9a3412" stroke-width="2" stroke-linecap="round"/>
  <!-- Rosy cheeks -->
  <ellipse cx="22" cy="38" rx="4" ry="2.5" fill="#fca5a5" opacity="0.5"/>
  <ellipse cx="42" cy="38" rx="4" ry="2.5" fill="#fca5a5" opacity="0.5"/>
</svg>
