<svg xmlns="http://www.w3.org/2000/svg" viewBox="0 0 64 64">
  <circle cx="32" cy="32" r="32" fill="#0f172a"/>
  <!-- Pompom hair -->
  <circle cx="10" cy="27" r="11" fill="#ef4444"/>
  <circle cx="54" cy="27" r="11" fill="#3b82f6"/>
  <circle cx="32" cy="8" r="10" fill="#eab308"/>
  <!-- Mini hat -->
  <polygon points="32,2 27,11 37,11" fill="#7c3aed"/>
  <rect x="25" y="11" width="14" height="3" rx="1" fill="#6d28d9"/>
  <!-- Face -->
  <circle cx="32" cy="37" r="18" fill="#fef3c7"/>
  <!-- Cheek blush -->
  <ellipse cx="21" cy="39" rx="5" ry="3" fill="#fca5a5" opacity="0.75"/>
  <ellipse cx="43" cy="39" rx="5" ry="3" fill="#fca5a5" opacity="0.75"/>
  <!-- Eyes -->
  <circle cx="25" cy="32" r="4" fill="white"/>
  <circle cx="39" cy="32" r="4" fill="white"/>
  <circle cx="26" cy="32" r="2.2" fill="#1e293b"/>
  <circle cx="40" cy="32" r="2.2" fill="#1e293b"/>
  <circle cx="27" cy="31" r="0.8" fill="white"/>
  <circle cx="41" cy="31" r="0.8" fill="white"/>
  <!-- Red nose -->
  <circle cx="32" cy="39" r="4" fill="#dc2626"/>
  <!-- Wide smile -->
  <path d="M 22 44 Q 32 53 42 44" fill="none" stroke="#92400e" stroke-width="2.5" stroke-linecap="round"/>
</svg>
