<svg xmlns="http://www.w3.org/2000/svg" viewBox="0 0 64 64">
  <circle cx="32" cy="32" r="32" fill="#0c1436"/>
  <!-- Books (stacked, bottom) -->
  <rect x="10" y="52" width="44" height="6" rx="2" fill="#1d4ed8"/>
  <rect x="12" y="46" width="40" height="7" rx="2" fill="#dc2626"/>
  <rect x="14" y="41" width="36" height="6" rx="2" fill="#16a34a"/>
  <!-- Book spines -->
  <line x1="14" y1="41" x2="14" y2="47" stroke="#15803d" stroke-width="1"/>
  <line x1="12" y1="46" x2="12" y2="53" stroke="#b91c1c" stroke-width="1"/>
  <line x1="10" y1="52" x2="10" y2="58" stroke="#1e40af" stroke-width="1"/>
  <!-- Mortarboard cap board -->
  <ellipse cx="32" cy="22" rx="22" ry="5" fill="#1e293b"/>
  <rect x="10" y="19" width="44" height="5" rx="1" fill="#0f172a"/>
  <!-- Cap dome on head -->
  <ellipse cx="32" cy="31" rx="16" ry="12" fill="#1e293b"/>
  <!-- Tassel -->
  <line x1="48" y1="21" x2="55" y2="30" stroke="#eab308" stroke-width="2"/>
  <circle cx="55" cy="30" r="2" fill="#eab308"/>
  <line x1="55" y1="32" x2="53" y2="39" stroke="#eab308" stroke-width="1.5"/>
  <line x1="55" y1="32" x2="55" y2="39" stroke="#eab308" stroke-width="1.5"/>
  <line x1="55" y1="32" x2="57" y2="39" stroke="#eab308" stroke-width="1.5"/>
  <!-- Face -->
  <ellipse cx="32" cy="35" rx="13" ry="11" fill="#fde8c8"/>
  <!-- Glasses -->
  <rect x="20" y="31" width="9" height="7" rx="2" fill="none" stroke="#1e293b" stroke-width="1.8"/>
  <rect x="35" y="31" width="9" height="7" rx="2" fill="none" stroke="#1e293b" stroke-width="1.8"/>
  <line x1="29" y1="34" x2="35" y2="34" stroke="#1e293b" stroke-width="1.5"/>
  <line x1="20" y1="34" x2="17" y2="33" stroke="#1e293b" stroke-width="1.5"/>
  <line x1="44" y1="34" x2="47" y2="33" stroke="#1e293b" stroke-width="1.5"/>
  <circle cx="24" cy="34" r="1.5" fill="#1e293b"/>
  <circle cx="39" cy="34" r="1.5" fill="#1e293b"/>
  <!-- Smile -->
  <path d="M 26 40 Q 32 44 38 40" fill="none" stroke="#92400e" stroke-width="2" stroke-linecap="round"/>
</svg>
