<svg xmlns="http://www.w3.org/2000/svg" viewBox="0 0 64 64">
  <defs>
    <radialGradient id="gym-face" cx="50%" cy="35%" r="65%">
      <stop offset="0%" stop-color="#fb923c"/>
      <stop offset="100%" stop-color="#7c2d12"/>
    </radialGradient>
  </defs>
  <circle cx="32" cy="32" r="32" fill="#1a0a00"/>
  <!-- Neck / body -->
  <rect x="22" y="46" width="20" height="14" rx="4" fill="#ea580c"/>
  <!-- Tank top straps -->
  <rect x="20" y="46" width="6" height="10" rx="2" fill="#c2410c"/>
  <rect x="38" y="46" width="6" height="10" rx="2" fill="#c2410c"/>
  <!-- Face -->
  <circle cx="32" cy="32" r="18" fill="url(#gym-face)"/>
  <!-- Sweatband -->
  <path d="M 14 26 Q 32 20 50 26" fill="none" stroke="#dc2626" stroke-width="5" stroke-linecap="round"/>
  <path d="M 14 26 Q 32 22 50 26" fill="none" stroke="#ef4444" stroke-width="2" stroke-linecap="round"/>
  <!-- Determined eyes -->
  <ellipse cx="25" cy="31" rx="4" ry="4" fill="white"/>
  <ellipse cx="39" cy="31" rx="4" ry="4" fill="white"/>
  <circle cx="26" cy="31" r="2.5" fill="#1a0a00"/>
  <circle cx="40" cy="31" r="2.5" fill="#1a0a00"/>
  <circle cx="27" cy="30" r="1" fill="white"/>
  <circle cx="41" cy="30" r="1" fill="white"/>
  <!-- Confident smirk -->
  <path d="M 25 40 Q 33 46 41 40" fill="none" stroke="#431407" stroke-width="2.5" stroke-linecap="round"/>
  <!-- Sweat drop -->
  <path d="M 50 28 Q 51.5 24 53 28 Q 53 31 50 31 Z" fill="#60a5fa" opacity="0.85"/>
</svg>
