<svg xmlns="http://www.w3.org/2000/svg" viewBox="0 0 64 64">
  <circle cx="32" cy="32" r="32" fill="#0a1a0a"/>
  <!-- Rat ears -->
  <ellipse cx="16" cy="19" rx="9" ry="11" fill="#6b7280"/>
  <ellipse cx="16" cy="19" rx="5.5" ry="7" fill="#9ca3af"/>
  <ellipse cx="48" cy="19" rx="9" ry="11" fill="#6b7280"/>
  <ellipse cx="48" cy="19" rx="5.5" ry="7" fill="#9ca3af"/>
  <!-- Rat face -->
  <ellipse cx="32" cy="36" rx="18" ry="17" fill="#9ca3af"/>
  <!-- Snout -->
  <ellipse cx="32" cy="44" rx="7" ry="5" fill="#6b7280"/>
  <!-- Nose -->
  <ellipse cx="32" cy="41" rx="2.5" ry="2" fill="#f9a8d4"/>
  <!-- Beady eyes -->
  <circle cx="22" cy="30" r="4.5" fill="white"/>
  <circle cx="42" cy="30" r="4.5" fill="white"/>
  <circle cx="23" cy="30" r="2.8" fill="#dc2626"/>
  <circle cx="43" cy="30" r="2.8" fill="#dc2626"/>
  <circle cx="23.5" cy="29" r="1" fill="#1e293b"/>
  <circle cx="43.5" cy="29" r="1" fill="#1e293b"/>
  <circle cx="24.2" cy="28.5" r="0.6" fill="white"/>
  <circle cx="44.2" cy="28.5" r="0.6" fill="white"/>
  <!-- Whiskers -->
  <line x1="20" y1="43" x2="5" y2="40" stroke="#d1d5db" stroke-width="1" opacity="0.8"/>
  <line x1="20" y1="44" x2="5" y2="46" stroke="#d1d5db" stroke-width="1" opacity="0.8"/>
  <line x1="44" y1="43" x2="59" y2="40" stroke="#d1d5db" stroke-width="1" opacity="0.8"/>
  <line x1="44" y1="44" x2="59" y2="46" stroke="#d1d5db" stroke-width="1" opacity="0.8"/>
  <!-- Chess knight (tiny) -->
  <text x="26" y="55" font-family="serif" font-size="10" fill="#22c55e" text-anchor="middle">♞</text>
</svg>
