<svg xmlns="http://www.w3.org/2000/svg" viewBox="0 0 64 64">
  <defs>
    <radialGradient id="tech-bg" cx="50%" cy="30%" r="70%">
      <stop offset="0%" stop-color="#1e40af"/>
      <stop offset="100%" stop-color="#0f172a"/>
    </radialGradient>
  </defs>
  <circle cx="32" cy="32" r="32" fill="#030712"/>
  <!-- Hoodie body -->
  <ellipse cx="32" cy="54" rx="24" ry="14" fill="#1e3a8a"/>
  <ellipse cx="32" cy="42" rx="18" ry="10" fill="#1d4ed8"/>
  <!-- Hood seam -->
  <path d="M 22 40 Q 18 30 20 22" fill="none" stroke="#1e3a8a" stroke-width="2.5"/>
  <path d="M 42 40 Q 46 30 44 22" fill="none" stroke="#1e3a8a" stroke-width="2.5"/>
  <!-- Drawstrings -->
  <line x1="28" y1="42" x2="27" y2="52" stroke="#1e3a8a" stroke-width="1.2"/>
  <line x1="36" y1="42" x2="37" y2="52" stroke="#1e3a8a" stroke-width="1.2"/>
  <!-- Face -->
  <circle cx="32" cy="29" r="14" fill="#fde8c8"/>
  <!-- Rectangle glasses -->
  <rect x="18" y="24" width="11" height="8" rx="2" fill="none" stroke="#1e293b" stroke-width="1.8"/>
  <rect x="35" y="24" width="11" height="8" rx="2" fill="none" stroke="#1e293b" stroke-width="1.8"/>
  <line x1="29" y1="28" x2="35" y2="28" stroke="#1e293b" stroke-width="1.5"/>
  <line x1="18" y1="28" x2="15" y2="27" stroke="#1e293b" stroke-width="1.5"/>
  <line x1="46" y1="28" x2="49" y2="27" stroke="#1e293b" stroke-width="1.5"/>
  <circle cx="23" cy="28" r="1.5" fill="#1e293b"/>
  <circle cx="40" cy="28" r="1.5" fill="#1e293b"/>
  <!-- Slight confident smile -->
  <path d="M 26 35 Q 32 39 38 35" fill="none" stroke="#92400e" stroke-width="2" stroke-linecap="round"/>
  <!-- Laptop in lap -->
  <rect x="10" y="50" width="22" height="12" rx="2" fill="#1e293b"/>
  <rect x="11" y="51" width="20" height="9" rx="1" fill="#0f172a"/>
  <line x1="13" y1="53" x2="21" y2="53" stroke="#22d3ee" stroke-width="1.2"/>
  <line x1="13" y1="55" x2="26" y2="55" stroke="#4ade80" stroke-width="1.2"/>
  <line x1="13" y1="57" x2="19" y2="57" stroke="#f472b6" stroke-width="1.2"/>
  <rect x="8" y="61" width="26" height="2" rx="1" fill="#334155"/>
</svg>
